<svg width="80" height="80" viewBox="0 0 80 80" fill="none" xmlns="http://www.w3.org/2000/svg">
<g clip-path="url(#clip0)">
<path d="M78.2626 45.1821C77.0563 44.8587 75.7388 45.5456 75.3921 46.8393L75.3379 47.0418L69.9148 45.5887C70.2526 43.7763 70.431 41.9087 70.431 39.9999C70.431 38.091 70.2524 36.2232 69.9146 34.4107L75.3377 32.9576L75.392 33.1601C75.7387 34.454 77.0563 35.1407 78.2624 34.8173C79.5127 34.4823 80.2548 33.1971 79.9196 31.9468L78.5979 27.0141C78.2627 25.7638 76.9784 25.0216 75.7274 25.3569C74.4771 25.6919 73.7352 26.9771 74.0702 28.2274L74.1245 28.4299L68.6998 29.8835C67.4357 26.3082 65.5224 23.0374 63.1007 20.2141L67.0821 16.2327L67.2304 16.381C68.1454 17.2961 69.6296 17.2964 70.5449 16.381C71.4602 15.4657 71.4602 13.9818 70.5449 13.0664L66.934 9.4555C66.0188 8.54019 64.5348 8.54019 63.6194 9.4555C62.7041 10.3708 62.7041 11.8547 63.6194 12.77L63.7677 12.9183L59.7863 16.8996C56.9627 14.4777 53.6918 12.5643 50.1163 11.3003L51.5697 5.87596L51.7722 5.93018C53.0713 6.27831 54.3213 5.47268 54.6427 4.27299C54.9777 3.02268 54.2358 1.73752 52.9855 1.40252L48.0529 0.0807973C46.8024 -0.254359 45.5172 0.487829 45.1824 1.73799C44.8474 2.9883 45.5893 4.27346 46.8396 4.60846L47.0421 4.66268L45.5889 10.0858C43.7766 9.748 41.9089 9.56956 40.0002 9.56956C38.0914 9.56956 36.2238 9.748 34.4114 10.0858L32.9583 4.66268L33.1608 4.60846C34.4111 4.27346 35.153 2.9883 34.818 1.73799C34.4832 0.487517 33.198 -0.254672 31.9477 0.0804848L27.015 1.40221C25.7647 1.73721 25.0228 3.02236 25.3578 4.27268C25.6792 5.47252 26.9292 6.27815 28.2283 5.92987L28.4308 5.87565L29.8842 11.3C26.3088 12.5641 23.0378 14.4774 20.2142 16.8993L16.2328 12.918L16.3811 12.7697C17.2964 11.8544 17.2964 10.3705 16.3811 9.45519C15.4659 8.53987 13.9819 8.53987 13.0666 9.45519L9.45561 13.0661C8.5403 13.9814 8.5403 15.4654 9.45561 16.3807C10.3709 17.2961 11.8551 17.2958 12.7701 16.3807L12.9184 16.2324L16.8998 20.2138C14.4781 23.0372 12.5648 26.308 11.3008 29.8832L5.87608 28.4296L5.9303 28.2271C6.2653 26.9768 5.52342 25.6916 4.27311 25.3566C3.02217 25.0213 1.73763 25.7635 1.40263 27.0138L0.0805994 31.9469C-0.254401 33.1973 0.487475 34.4824 1.73779 34.8174C2.94404 35.1409 4.26154 34.454 4.60826 33.1602L4.66248 32.9577L10.0856 34.4109C9.7478 36.2234 9.56921 38.0912 9.56921 40.0001C9.56921 41.9088 9.74764 43.7765 10.0855 45.5888L4.66233 47.042L4.60811 46.8395C4.26139 45.5456 2.94373 44.8588 1.73763 45.1823C0.487319 45.5173 -0.254557 46.8024 0.0804431 48.0527L1.40216 52.9854C1.73732 54.2357 3.0217 54.9779 4.27264 54.6426C5.52295 54.3076 6.26483 53.0224 5.92983 51.7721L5.87561 51.5696L11.3 50.1162C12.5641 53.6917 14.4773 56.9626 16.8992 59.7862L12.9178 63.7676L12.7695 63.6193C11.8545 62.7042 10.3703 62.7039 9.45499 63.6193C8.53968 64.5346 8.53968 66.0186 9.45499 66.9339L13.0659 70.5448C13.9811 71.4601 15.4652 71.4601 16.3805 70.5448C17.2958 69.6295 17.2958 68.1456 16.3805 67.2303L16.2322 67.082L20.2136 63.1007C23.0372 65.5226 26.3081 67.4361 29.8836 68.7L28.4302 74.1243L28.2277 74.0701C26.9286 73.722 25.6786 74.5276 25.3572 75.7273C25.0222 76.9776 25.7641 78.2628 27.0144 78.5978L31.9471 79.9195C33.1975 80.2547 34.4827 79.5125 34.8175 78.2623C35.1525 77.012 34.4107 75.7268 33.1603 75.3918L32.9578 75.3376L34.411 69.9145C36.2233 70.2523 38.091 70.4307 39.9997 70.4307C41.9085 70.4307 43.7761 70.2523 45.5885 69.9145L47.0416 75.3376L46.8391 75.3918C45.5888 75.7268 44.8469 77.012 45.1819 78.2623C45.5169 79.5125 46.8019 80.2547 48.0524 79.9195L52.9851 78.5978C54.2354 78.2628 54.9772 76.9776 54.6422 75.7273C54.3208 74.5275 53.0708 73.7218 51.7718 74.0701L51.5693 74.1243L50.1158 68.7C53.6913 67.4359 56.9622 65.5226 59.7858 63.1007L63.7673 67.082L63.619 67.2303C62.7037 68.1456 62.7037 69.6295 63.619 70.5448C64.5341 71.4601 66.0182 71.4601 66.9335 70.5448L70.5445 66.9339C71.4598 66.0186 71.4598 64.5346 70.5445 63.6193C69.6291 62.7039 68.1449 62.7042 67.2299 63.6193L67.0816 63.7676L63.1002 59.7862C65.5221 56.9626 67.4355 53.6917 68.6995 50.1162L74.1238 51.5696L74.0696 51.7721C73.7346 53.0224 74.4765 54.3076 75.7268 54.6426C76.9777 54.9779 78.2623 54.2357 78.5973 52.9854L79.919 48.0527C80.2548 46.8023 79.5129 45.5171 78.2626 45.1821V45.1821ZM40.0002 65.7434C25.8053 65.7434 14.2569 54.1949 14.2569 40.0001C14.2569 25.8052 25.8053 14.2568 40.0002 14.2568C54.1951 14.2568 65.7435 25.8052 65.7435 40.0001C65.7435 54.1949 54.1951 65.7434 40.0002 65.7434Z" fill="white"/>
<path d="M39.9991 24.7709C41.2936 24.7709 42.3429 23.7216 42.3429 22.4272C42.3429 21.1328 41.2936 20.0834 39.9991 20.0834C38.7047 20.0834 37.6554 21.1328 37.6554 22.4272C37.6554 23.7216 38.7047 24.7709 39.9991 24.7709Z" fill="white"/>
<path d="M39.9991 59.9169C41.2936 59.9169 42.3429 58.8675 42.3429 57.5731C42.3429 56.2787 41.2936 55.2294 39.9991 55.2294C38.7047 55.2294 37.6554 56.2787 37.6554 57.5731C37.6554 58.8675 38.7047 59.9169 39.9991 59.9169Z" fill="white"/>
<path d="M34.9783 47.3645C36.2727 47.3645 37.322 46.3152 37.322 45.0208C37.322 43.7263 36.2727 42.677 34.9783 42.677C33.6839 42.677 32.6345 43.7263 32.6345 45.0208C32.6345 46.3152 33.6839 47.3645 34.9783 47.3645Z" fill="white"/>
<path d="M45.0198 47.3645C46.3142 47.3645 47.3635 46.3152 47.3635 45.0208C47.3635 43.7263 46.3142 42.677 45.0198 42.677C43.7254 42.677 42.676 43.7263 42.676 45.0208C42.676 46.3152 43.7254 47.3645 45.0198 47.3645Z" fill="white"/>
<path d="M45.0198 37.3231C46.3142 37.3231 47.3635 36.2738 47.3635 34.9794C47.3635 33.685 46.3142 32.6356 45.0198 32.6356C43.7254 32.6356 42.676 33.685 42.676 34.9794C42.676 36.2738 43.7254 37.3231 45.0198 37.3231Z" fill="white"/>
<path d="M34.9783 37.3231C36.2727 37.3231 37.322 36.2738 37.322 34.9794C37.322 33.685 36.2727 32.6356 34.9783 32.6356C33.6839 32.6356 32.6345 33.685 32.6345 34.9794C32.6345 36.2738 33.6839 37.3231 34.9783 37.3231Z" fill="white"/>
<path d="M57.5719 42.3439C58.8663 42.3439 59.9157 41.2945 59.9157 40.0001C59.9157 38.7057 58.8663 37.6564 57.5719 37.6564C56.2775 37.6564 55.2281 38.7057 55.2281 40.0001C55.2281 41.2945 56.2775 42.3439 57.5719 42.3439Z" fill="white"/>
<path d="M22.4259 42.3439C23.7203 42.3439 24.7697 41.2945 24.7697 40.0001C24.7697 38.7057 23.7203 37.6564 22.4259 37.6564C21.1315 37.6564 20.0822 38.7057 20.0822 40.0001C20.0822 41.2945 21.1315 42.3439 22.4259 42.3439Z" fill="white"/>
<path d="M52.4248 29.9185C53.7192 29.9185 54.7686 28.8691 54.7686 27.5747C54.7686 26.2803 53.7192 25.231 52.4248 25.231C51.1304 25.231 50.0811 26.2803 50.0811 27.5747C50.0811 28.8691 51.1304 29.9185 52.4248 29.9185Z" fill="white"/>
<path d="M27.573 54.7705C28.8674 54.7705 29.9168 53.7212 29.9168 52.4268C29.9168 51.1323 28.8674 50.083 27.573 50.083C26.2786 50.083 25.2292 51.1323 25.2292 52.4268C25.2292 53.7212 26.2786 54.7705 27.573 54.7705Z" fill="white"/>
<path d="M52.4248 54.7705C53.7192 54.7705 54.7686 53.7212 54.7686 52.4268C54.7686 51.1323 53.7192 50.083 52.4248 50.083C51.1304 50.083 50.0811 51.1323 50.0811 52.4268C50.0811 53.7212 51.1304 54.7705 52.4248 54.7705Z" fill="white"/>
<path d="M27.573 29.9185C28.8674 29.9185 29.9168 28.8691 29.9168 27.5747C29.9168 26.2803 28.8674 25.231 27.573 25.231C26.2786 25.231 25.2292 26.2803 25.2292 27.5747C25.2292 28.8691 26.2786 29.9185 27.573 29.9185Z" fill="white"/>
</g>
<defs>
<clipPath id="clip0">
<rect width="80" height="80" fill="white"/>
</clipPath>
</defs>
</svg>
